<?xml version="1.0" encoding="UTF-8" standalone="no"?><!DOCTYPE svg PUBLIC "-//W3C//DTD SVG 1.1//EN" "http://www.w3.org/Graphics/SVG/1.1/DTD/svg11.dtd"><svg width="100%" height="100%" viewBox="0 0 10521 5409" version="1.1" xmlns="http://www.w3.org/2000/svg" xmlns:xlink="http://www.w3.org/1999/xlink" xml:space="preserve" xmlns:serif="http://www.serif.com/" style="fill-rule:evenodd;clip-rule:evenodd;stroke-linecap:round;stroke-linejoin:round;stroke-miterlimit:1.5;"><path d="M3356.66,3546.19c-478.687,536.019 -1287.03,582.71 -1803.99,104.202c-516.96,-478.508 -548.033,-1302.18 -69.347,-1838.19c478.687,-536.019 1287.03,-582.71 1803.99,-104.202c516.96,478.508 548.033,1302.17 69.347,1838.19Z" style="fill:#ff9f0f;stroke:#000;stroke-width:58.33px;"/><path d="M2449.62,2726.96c-28.778,32.225 -77.583,34.839 -108.92,5.833c-31.336,-29.006 -33.414,-78.717 -4.635,-110.942c28.778,-32.225 77.583,-34.839 108.92,-5.833c31.336,29.006 33.413,78.717 4.635,110.942Z" style="fill:#fff;stroke:#000;stroke-width:25px;"/><path d="M3730.01,3922.8l-298.975,-276.737" style="fill:none;stroke:#000;stroke-width:25px;"/><path d="M1202.41,4020.26l244.658,-273.961" style="fill:none;stroke:#000;stroke-width:25px;"/><path d="M2418.17,4883.35l-12.5,-803" style="fill:none;stroke:#000;stroke-width:25px;"/><path d="M203.536,2724.79l788.625,-18.808" style="fill:none;stroke:#000;stroke-width:25px;"/><path d="M3866.41,2630.56l788.625,-18.808" style="fill:none;stroke:#000;stroke-width:25px;"/><path d="M958.452,1333.58l298.975,276.737" style="fill:none;stroke:#000;stroke-width:25px;"/><path d="M2754.87,3539.66c199.794,-70.695 344.274,-209.865 432.293,-418.929" style="fill:none;stroke:#000;stroke-width:18.75px;"/><path d="M1833.81,1771.81c-74.959,19.693 -133.281,65.256 -174.624,137.225" style="fill:none;stroke:#000;stroke-width:18.75px;"/><path d="M2241.57,2719.68c0.917,36.626 18.74,63.624 53.82,80.793" style="fill:none;stroke:#000;stroke-width:18.75px;"/><path d="M2358.6,1160.98l-12.5,-803" style="fill:none;stroke:#000;stroke-width:25px;"/><path d="M3429.59,1517.6l248.539,-278.306" style="fill:none;stroke:#000;stroke-width:25px;"/><g transform="matrix(3.21896,0,0,2.98633,3150.43,-61.7933)"><g transform="matrix(0.870835,0,0,0.97,21.9462,26.22)"><text x="169.908px" y="874px" style="font-family:'Futura-Bold', 'Futura', sans-serif;font-weight:700;font-size:530.498px;fill:#009b78;">S<tspan x="519.505px 1017.11px 1507.29px 1701.99px 2125.85px " y="874px 874px 874px 874px 874px ">ONIDO</tspan></text></g><g transform="matrix(0.870835,0,0,0.97,49.1085,38.6217)"><text x="380.199px" y="1287.39px" style="font-family:'Futura-Bold', 'Futura', sans-serif;font-weight:700;font-size:530.498px;fill:#009b78;">S<tspan x="729.797px 1227.4px 1535.41px 1967.77px " y="1287.39px 1287.39px 1287.39px 1287.39px ">OLAR</tspan></text></g></g></svg>